<?xml version="1.0" encoding="UTF-8" standalone="no"?>
<!-- Created with Inkscape (http://www.inkscape.org/) -->

<svg
   xmlns:dc="http://purl.org/dc/elements/1.1/"
   xmlns:cc="http://creativecommons.org/ns#"
   xmlns:rdf="http://www.w3.org/1999/02/22-rdf-syntax-ns#"
   xmlns:svg="http://www.w3.org/2000/svg"
   xmlns="http://www.w3.org/2000/svg"
   xmlns:sodipodi="http://sodipodi.sourceforge.net/DTD/sodipodi-0.dtd"
   xmlns:inkscape="http://www.inkscape.org/namespaces/inkscape"
   width="82.847282mm"
   height="153.40215mm"
   viewBox="0 0 293.55336 543.55091"
   id="svg4355"
   version="1.1"
   inkscape:version="0.91 r13725"
   sodipodi:docname="LogoSoloV2.svg">
  <defs
     id="defs4357" />
  <sodipodi:namedview
     id="base"
     pagecolor="#ffffff"
     bordercolor="#666666"
     borderopacity="1.0"
     inkscape:pageopacity="0.0"
     inkscape:pageshadow="2"
     inkscape:zoom="0.35"
     inkscape:cx="-272.50903"
     inkscape:cy="243.20403"
     inkscape:document-units="px"
     inkscape:current-layer="layer1"
     showgrid="false"
     fit-margin-top="0"
     fit-margin-left="0"
     fit-margin-right="0"
     fit-margin-bottom="0"
     inkscape:window-width="1366"
     inkscape:window-height="705"
     inkscape:window-x="-8"
     inkscape:window-y="-8"
     inkscape:window-maximized="1" />
  <metadata
     id="metadata4360">
    <rdf:RDF>
      <cc:Work
         rdf:about="">
        <dc:format>image/svg+xml</dc:format>
        <dc:type
           rdf:resource="http://purl.org/dc/dcmitype/StillImage" />
        <dc:title></dc:title>
      </cc:Work>
    </rdf:RDF>
  </metadata>
  <g
     inkscape:label="Capa 1"
     inkscape:groupmode="layer"
     id="layer1"
     transform="translate(-216.08045,-232.01532)">
    <path
       style="fill:none;fill-rule:evenodd;stroke:#002255;stroke-width:17.36195755;stroke-linecap:round;stroke-linejoin:miter;stroke-miterlimit:4;stroke-dasharray:17.36195836, 17.36195836;stroke-dashoffset:0;stroke-opacity:1"
       d="m 255.69225,502.75479 c -22.3313,-49.3363 45.2135,-83.4121 71.4615,-98.6727 59.4541,-34.5667 133.5473,-55.7901 154.2942,-83.8386 16.6029,-22.4464 23.3599,-95.77343 -24.0068,-76.49653 -22.3317,9.08828 -38.7999,62.36317 -34.3335,116.89283 4.4664,54.5297 1.6359,302.958 1.6359,310.7479 0,7.7901 -33.9381,-55.6786 -14.9562,-94.6284 22.6704,-46.5186 74.1327,-28.3291 87.5315,-7.5559 13.3989,20.7733 -10.0467,47.6546 -43.5442,50.2513 -33.4976,2.5966 -122.6431,7.344 -151.6742,17.1563 -9.3754,3.1688 -63.2574,18.1553 -75.1646,64.9654 -11.7588,46.2252 26.4753,65.2533 26.4753,65.2533"
       id="path4224-6-1-7-6-5-4-4"
       inkscape:connector-curvature="0"
       sodipodi:nodetypes="cssssssssssc" />
  </g>
</svg>
